<?xml version="1.0" encoding="utf-8"?>
<!-- Generator: Adobe Illustrator 25.0.0, SVG Export Plug-In . SVG Version: 6.00 Build 0)  -->
<svg version="1.1" id="Layer_1" xmlns="http://www.w3.org/2000/svg" xmlns:xlink="http://www.w3.org/1999/xlink" x="0px" y="0px"
	 viewBox="0 0 750 749.92" style="enable-background:new 0 0 750 749.92;" xml:space="preserve">
<style type="text/css">
	.st0{fill:#10141F;}
	.st1{fill:#2AF498;}
	.st2{fill:#1CD5BB;}
	.st3{fill:#1EDBB5;}
	.st4{fill:#19D2C0;}
	.st5{fill:#1CD7B9;}
	.st6{fill:#17CBC7;}
	.st7{fill:#12C3D1;}
	.st8{fill:#28EF9E;}
	.st9{fill:#20DFB0;}
	.st10{fill:#18CFC3;}
	.st11{fill:#10BDD7;}
	.st12{fill:#1BD5BC;}
	.st13{fill:#1AD3BE;}
	.st14{fill:#22E2AD;}
	.st15{fill:#26EBA2;}
	.st16{fill:#23E6A8;}
	.st17{fill:#1EDBB4;}
	.st18{fill:#28EF9D;}
	.st19{fill:#0AB1E5;}
	.st20{fill:#26EAA3;}
	.st21{fill:#23E7A7;}
	.st22{fill:#23E5A9;}
	.st23{fill:#21E0AE;}
	.st24{fill:#25EAA4;}
	.st25{fill:#24E8A5;}
	.st26{fill:#25E9A4;}
	.st27{fill:#15C7CB;}
	.st28{fill:#1FDEB1;}
	.st29{fill:#23E6A7;}
	.st30{fill:#1FDDB2;}
	.st31{fill:#1DDAB6;}
	.st32{fill:#28F09C;}
	.st33{fill:#22E2AC;}
	.st34{fill:#27ED9F;}
	.st35{fill:#1CD6B9;}
	.st36{fill:#22E3AB;}
	.st37{fill:#12494F;}
	.st38{fill:#14ADB3;}
	.st39{fill:#19E2D3;}
	.st40{fill:#17DED9;}
	.st41{fill:#13D6E2;}
	.st42{fill:#0ECCED;}
	.st43{fill:#0AC3F7;}
	.st44{fill:#2AFDA4;}
	.st45{fill:#28FBAC;}
	.st46{fill:#15D5DA;}
	.st47{fill:#24F8BA;}
	.st48{fill:#17CDC5;}
	.st49{fill:#15C7CC;}
	.st50{fill:#15CDCF;}
	.st51{fill:#13D7E1;}
	.st52{fill:#11D2E7;}
	.st53{fill:#19D1C1;}
	.st54{fill:#1ADBC2;}
	.st55{fill:#0BB5E1;}
	.st56{fill:#0CBDE5;}
	.st57{fill:#1AD2BF;}
	.st58{fill:#18DFD8;}
	.st59{fill:#28FBA7;}
	.st60{fill:#1CE8CE;}
	.st61{fill:#15CFD0;}
	.st62{fill:#11C5DB;}
	.st63{fill:#16CAC9;}
	.st64{fill:#17CAC8;}
	.st65{fill:#11C0D4;}
	.st66{fill:#0FBCD8;}
	.st67{fill:#0DB9DD;}
</style>
<path class="st0" d="M750.15,374.87c0,123.85-0.01,247.7,0.07,371.56c0,2.81-0.63,3.45-3.44,3.44c-247.7-0.08-495.41-0.08-743.11,0
	c-2.81,0-3.45-0.63-3.44-3.44c0.08-247.7,0.08-495.41,0-743.11c0-2.81,0.63-3.45,3.44-3.44c247.7,0.08,495.41,0.08,743.11,0
	c2.81,0,3.45,0.63,3.44,3.44C750.14,127.17,750.15,251.02,750.15,374.87z"/>
<path class="st1" d="M267.72,261.64c16.55-20.21,37.3-34.42,61.92-42.94c98.9-34.24,199.55,49.85,183.49,153.26
	c-0.46,2.96-0.94,5.92-1.65,8.83c-1.59,6.49-7.65,10.35-13.87,8.98c-6.47-1.42-10.27-7.46-8.98-14.2
	c7.92-41.45-2.55-77.58-32.29-107.54c-20.23-20.38-45.16-32.16-73.88-33.21c-1.63-0.06-2.99,0-4.48,0.01
	c-2.24,0-3.83,0.01-5.96,0.01c-18.11,0.05-35.02,4.83-51.01,13.12c-13.25,6.87-24.47,16.32-34.46,27.3
	c-5.1-5.06-12.47-6.49-17.85-11.12C267.89,263.45,267.22,262.8,267.72,261.64z"/>
<path class="st1" d="M446.35,340.51c-2.61-17.95-10.2-33.31-23.88-45.42c-11.78-10.43-25.55-16.35-41.26-17.69
	c-8.04-0.69-12.91-5.9-12.24-13.08c0.65-6.97,6.68-11.09,14.65-10.38c44.47,3.98,79.41,38.38,85.5,80.95
	c1.71,11.97,1.48,23.89-1.79,35.63c-0.77,0.38-1.5,0.18-2.04-0.38c-4.17-4.29-9.69-6.42-14.83-9.09c-2.72-1.42-3.85-3.26-3.85-6.13
	c-0.01-3.58-0.66-7.15-0.04-10.75C446.77,343.01,446.85,341.71,446.35,340.51z"/>
<path class="st1" d="M395.38,330.68c-6.03-6.05-13.37-8.87-21.86-8.83c-1.79-3.54-5.36-4.59-8.64-5.84c-5.26-2-9.81-5.22-14.65-7.95
	c-0.65-0.36-1.01-1.1-0.7-1.95c6.44-4.65,13.84-6.69,21.57-7.41c24.01-2.22,46.34,13.35,52.85,36.54c0.69,2.46,1.94,9.26,1.82,11.75
	c-2.07,1.96-5.33-2.99-7.61-4.04C410.29,339.36,402.72,335.23,395.38,330.68z"/>
<path class="st1" d="M309.77,279.75c7.76-7.51,16.65-13.36,26.46-17.82c7-3.19,13.89-0.86,16.7,5.53c2.75,6.25,0,12.72-6.94,15.85
	c-6.3,2.84-11.91,6.72-17.41,10.82c-3.87,0.54-6.73-2.12-10.04-3.3c-2.88-1.02-5.3-3.14-8-4.66
	C307.63,284.55,308.46,282.09,309.77,279.75z"/>
<path class="st2" d="M410.3,436.49c-8.34,3.82-17.16,5.64-26.24,6.44c-5.76-3.39-11.8-6.18-18.24-8.01
	c-0.24-0.07-0.54-0.07-0.7-0.24c-5.14-4.95-12.65-6.35-17.52-11.7c-0.76-0.84-1.67-1.58-1.07-2.9c11-0.02,21.99-0.04,32.99-0.06
	c6.45,1.76,12.69,4,18.17,7.97c3.52,2.56,7.22,4.79,11.28,6.42C409.8,434.75,410.27,435.52,410.3,436.49z"/>
<path class="st3" d="M377.23,398.85c-11.75,0-23.49,0-35.24,0c-5.82-4.64-12.61-7.76-18.87-11.69c-3.52-2.22-7.24-4.63-11.6-5.55
	c-3.01-0.64-3.94-2.83-3.25-5.82c7.25-0.02,14.5-0.03,21.75-0.05c3.39,1.11,6.94,0.42,10.51,1.34c3.89,1,6.38,3.69,9.75,5.11
	c8.77,3.71,16.66,9.22,25.62,12.57C377.86,395.5,379.33,396.65,377.23,398.85z"/>
<path class="st4" d="M346.52,420.08c5.02,2.55,9.13,6.42,14.13,9.19c6.58,3.65,13.33,6.41,20.26,9.06c1.7,0.65,3.09,2.38,3.15,4.59
	c-1.02,0.13-2.04,0.27-3.05,0.4c-8.25,0.6-16.51,0.1-24.75,0.26c-7.76,0-11.01-3.32-15.77-6.62c-3.2-2.22-6.45-4.24-10.07-5.65
	c-2.54-0.99-3.93-2.14-4.51-5.06c0.17-2.01-0.12-2.88,0.33-6.17C333,420.08,339.76,420.08,346.52,420.08z"/>
<path class="st5" d="M308.26,375.8c1.31,2.92,3.72,4.07,6.68,5.11c4.03,1.41,7.55,4.44,11.37,5.91c4.74,1.82,7.49,6.58,12.77,7.27
	c2.26,0.29,3.46,2.24,2.92,4.77c-5.5,0-11.01,0-16.51,0c-5.08,0.25-9.15-2.35-13.58-4.35c-8-3.61-15.09-9-23.58-11.66
	c-2.24-0.7-4.02-2.83-5.83-4.49c-1.25-1.15-0.98-2.21,1.04-2.26c2.49-0.07,4.99,0.25,7.47-0.19
	C296.75,375.87,302.5,375.83,308.26,375.8z"/>
<path class="st6" d="M417.16,483.78c-6.84,2.55-13.92,4.1-21.14,5.02c-2.09-2.11-5.18-2.18-7.67-3.05
	c-4.84-1.7-8.99-4.62-13.27-7.02c-3.12-1.75-6.66-4.01-9.12-7.11c1.87-2.98,4.75-4.24,8.08-4.48c5.29-0.37,10.6-0.57,15.9-0.84
	c6.04,1.73,10.38,6.49,16.03,8.94c3.24,1.4,6.57,2.67,9.24,5.2C416.27,481.43,417.26,482.23,417.16,483.78z"/>
<path class="st7" d="M258.61,421.46c0.06,4.35,0.18,8.7,0.18,13.05c0,7.15-3.65,11.93-9.81,12.98c-6.23,1.06-11.26-2.47-13.56-9.49
	c-0.38-0.55-0.59-1.16-0.49-1.84c0.5-4.51,0.01-9.04,0.28-13.56c1.57-4.17,2.09-4.32,6.21-3.14c5.33,1.52,9.51,5.18,14.43,7.45
	c1.48,0.68,1.45,2.16,1.41,3.46c0.13-3.02-1.31-6.02,0.36-8.9C257.95,421.27,258.28,421.28,258.61,421.46z"/>
<path class="st8" d="M349.52,306.12c9.36,4.31,18.14,9.77,27.85,13.71c-1.15,1.7-2.99,0.84-3.85,2.03
	c-5.79,0.93-11.06,3.06-15.72,6.65c-3.7,1.8-6.4-1.16-9.29-2.3c-4.64-1.83-8.7-5.32-14.22-3.95c-0.32,0.08-0.67-0.28-0.87-0.61
	C337.46,315.1,342.62,309.71,349.52,306.12z"/>
<path class="st9" d="M377.23,398.85c-5.73-5.97-14.26-6.89-20.83-11.54c-4.02-2.85-8.71-5.17-13.16-7.23
	c-4.04-1.86-13.22-2.74-13.22-4.33c7.25,0,14.5,0,21.75,0c5.89-0.1,11.4,1.52,16.74,3.81c3.39,1.45,6.39,3.51,9.32,5.79
	c3,2.33,6.67,3.6,10.22,4.97c2.66,1.03,4.62,2.52,3.54,5.84c-2.8,1.34-5.74,2.08-8.84,2.13c-1.51,0.73-3.21-0.27-4.71,0.53
	C377.76,398.83,377.49,398.84,377.23,398.85z"/>
<path class="st10" d="M417.16,483.78c-5.85-4.12-12.29-7.15-18.67-10.31c-2.51-1.24-3.72-4.6-7.34-4.28
	c-0.88,0.08-1.11-1.76-1.21-2.89c5.76-1.21,11.51-2.43,17.27-3.64c6.9,0.42,12.51,4.1,18.16,7.5c2.02,1.22,4.01,2.35,6.19,3.23
	c1.54,0.63,3.42,1.28,2.72,3.68C428.83,479.95,423.17,482.29,417.16,483.78z"/>
<path class="st11" d="M348.07,506.25c-1.8,5.1-5.55,8.03-10.42,8.16c-5.27,0.14-9.07-2.83-11.45-8.95
	c-0.42-0.54-0.64-1.14-0.54-1.84c0.55-5.65-0.18-11.33,0.4-16.97c0.53-3.03,3.41-1.26,4.72-0.38c4.69,3.14,9.99,4.99,14.75,7.93
	c1.28,0.79,2.99,1.21,3.48,3.04C349.43,500.31,348.97,503.3,348.07,506.25z"/>
<path class="st12" d="M290.99,375.9c-2.44,1.2-5.18,0.05-7.81,0.91c6.54,5.18,14.55,7.36,21.35,11.72
	c4.86,3.12,10.78,4.4,14.95,8.68c1.68,1.73,4.19,0.41,6,1.64c-3.48,0.07-6.97,0.14-10.45,0.21c-5.93,0-8.14-0.21-9.95,0.25
	c-1.61,0.49-1.62,2.34-1.62,4.12c-3.95,0.91-6.37-1.55-9.19-3.35c-3.2-2.03-6.52-3.88-9.72-5.89c-2.07-1.3-3.5-2.63-3.65-5.11
	c-0.2-4.2-0.44-9.1-0.44-13.3C284.1,375.8,287.52,376.07,290.99,375.9z"/>
<path class="st3" d="M410.3,436.49c-5.98-1.27-10.64-5.09-15.72-8.11c-2.71-1.61-5.05-3.54-8.6-3.88c-2.28-0.22-4.32-2.9-6.48-4.48
	c6.98-0.43,13.63-2.38,20.3-4.3c3.42-0.77,6.11,0.71,8.81,2.61c4.15,2.91,8.87,4.79,13.45,6.91c1.98,0.92,4.08,1.96,1.72,4.58
	C419.5,432.48,415.19,435.07,410.3,436.49z"/>
<path class="st13" d="M434.29,477.07c-3.55-2.93-8.34-3.39-11.99-6.34c-4.45-3.6-10.43-4.64-15.08-8.07
	c6.44-2.5,12.89-5.01,19.33-7.51c0.96-0.44,2.07-0.59,2.82,0.1c4.13,3.78,10.43,4.13,13.96,8.87c0.52,0.7,1.58,0.6,2.4,0.86
	c2.85,0.9,3.23,1.9,1.99,4.94C443.52,472.81,439.02,475.14,434.29,477.07z"/>
<path class="st14" d="M446.34,411.01c-2.78,4.33-7.17,6.99-10.82,10.41c-1.71,0.71-3.08,0.36-4.84-0.47
	c-4.34-2.05-8.37-4.76-12.97-6.29c-3.27-1.09-4.19-2.67-3.79-6.11c3.77-2.95,7.54-5.91,11.31-8.86c3.98-2.94,4.19-2.94,8.32,0.2
	c3.23,2.46,7.21,3.27,10.78,4.97C447.51,406.38,447.93,407.72,446.34,411.01z"/>
<path class="st15" d="M318.09,305.28c-2.79,4.73-5.57,9.47-8.36,14.2c-2.14,1.09-4.28,0.41-5.92-0.75
	c-4.86-3.44-10.15-5.69-15.97-6.78c2.05-6.01,5.13-11.46,8.89-16.55c2.89-2.12,5.38-2.07,8.23,0.5c2.45,2.21,5.71,3.4,8.75,4.8
	C315.74,301.64,317.7,302.73,318.09,305.28z"/>
<path class="st16" d="M287.84,311.94c1.88-2.34,3.52-1.72,6.14-0.57c5.44,2.38,10.3,5.81,15.75,8.11c-2.1,5.64-3.9,11.38-5.19,17.27
	c-0.93,0.56-1.61,0.04-2.35-0.46c-4.09-2.76-8.88-4.34-12.65-7.68c-1.1-0.98-2.76-0.97-4.28-0.97c-2.1-0.01-2.62-1.06-1.75-2.9
	C284.27,320.23,285.77,315.99,287.84,311.94z"/>
<path class="st17" d="M236.24,337.8c-0.09-5.28,0.84-10.42,2.21-15.5c4.91,2.32,9.84,4.58,14.68,7.06c2.96,1.51,5.58,3.16,6.43,6.62
	c-0.06,1.23-0.12,2.45-0.17,3.68c-0.2,3.04-0.55,5.41-0.55,9.11c-0.08,4.74-0.16,9.48-0.24,14.21c-0.41,0.19-0.77,0.12-1.09-0.2
	c-1.27-2.72-1.62-5.65-2.03-8.57c-0.18-1.2-0.79-1.99-1.95-2.51c-4.2-1.91-7.59-5.08-11.39-7.61c-0.74-0.49-1.4-0.97-2.29-1.16
	C235.58,342.05,235.58,342.03,236.24,337.8z"/>
<path class="st14" d="M391.58,396.16c-2.67-5.12-8.39-5.25-12.69-7.68c-1.14-0.65-3.28-0.01-2.78-2.5c0.05-0.25-0.32-0.84-0.54-0.86
	c-5.11-0.62-8.33-6.13-13.95-5.41c-0.24,0.03-0.67-0.01-0.7-0.11c-1.52-4.98-6.36-1.97-9.16-3.84c9-0.26,18-0.32,27,0.03
	c3.3-0.01,6.04,1.17,8.73,3.16c4.18,3.09,9.39,4.42,13.75,7.28c1.44,0.94,3.17,1.73,2.36,4
	C400.02,393.06,396.02,395.06,391.58,396.16z"/>
<path class="st18" d="M446.35,340.51c1.35,4.15,0.55,8.41,0.58,12.62c0.02,3.22,1.27,4.91,4.2,6.21c4.31,1.9,8.38,4.37,12.54,6.61
	c1.87,1,2.71,2.84,3.66,4.58c-0.5,3.64-1.56,7.12-3.13,10.44c-2.76,3.05-5.8,2.05-8.77,0.49c-3.61-1.89-7.02-4.15-10.61-6.07
	c-1.89-1.01-2.4-2.35-1.62-4.28c1.41-6.4,3.52-12.68,3.08-19.37c0-2.08,0.02-3.82,0.02-6.04
	C446.32,343.97,446.33,342.24,446.35,340.51z"/>
<path class="st18" d="M318.09,305.28c-4.4-2.35-9.06-4.31-13.09-7.17c-2.66-1.88-5.13-2.98-8.27-2.71
	c3.49-5.93,8.14-10.89,13.04-15.64c0.04,2.72,1.06,4.3,3.61,6.04c4.84,3.31,10.81,4.38,15.2,8.34
	C325.08,297.85,321.59,301.56,318.09,305.28z"/>
<path class="st8" d="M267.72,261.64c5.4,2.92,10.24,6.9,16.2,8.72c2.72,0.83,3.35,2.4,2.63,4.89c-2.81,3.73-5.61,7.47-8.42,11.2
	c-4.7-0.48-8.56-2.94-12.3-5.49c-1.2-0.82-2.18-1.97-3.59-2.56c-2.54-1.06-3.66-2.87-2.83-5.64
	C261.66,268.66,264.63,265.11,267.72,261.64z"/>
<path class="st19" d="M303.16,530.26c-1.7,5.81-6.62,9.24-12.32,8.57c-5.97-0.7-9.86-4.82-10.3-10.89
	c0.78-4.07,0.13-8.18,0.38-12.26c0.78-2.06,2.46-2.13,3.93-1.26c5.83,3.45,12.59,5.1,18.01,9.32c1.11,1.94-0.25,3.97,0.21,5.93
	C303.1,529.86,303.13,530.06,303.16,530.26z"/>
<path class="st20" d="M259.42,272.77c0.88,2.2,2.96,3.09,4.56,4.54c4.26,3.88,10.12,5.09,14.16,9.15
	c-2.36,4.06-4.73,8.11-7.09,12.17c-3.37,0.68-6.43-0.48-9.19-2.07c-2.9-1.67-5.57-3.7-8.67-5.09c-1.32-0.59-3.1-1.35-2.67-3.51
	C252.84,282.52,255.86,277.48,259.42,272.77z"/>
<path class="st21" d="M446.34,411.01c0.37-2.5-0.87-3.86-3.12-4.69c-4.55-1.68-9.22-3.13-12.84-6.62c-1.71-1.65-3.43-0.25-5.15-0.01
	c4.11-4.45,7.82-9.22,11.27-14.2c3.95-0.74,6.98,1.36,9.58,3.7c1.63,1.48,3.1,2.57,5.26,3.14c2.31,0.6,5.01,1.19,5.38,4.38
	C453.87,401.92,450.59,406.82,446.34,411.01z"/>
<path class="st15" d="M456.72,396.72c-2.44-1.19-4.69-2.76-7.58-2.9c-0.9-0.04-2.15-0.59-2.59-1.31c-2.35-3.85-7-4.28-10.06-7.02
	c2.23-4.79,4.47-9.58,6.7-14.37c0.12,0.89,0.35,1.68,1.23,2.16c4.12,2.24,8.26,4.44,12.31,6.8c2.42,1.41,4.91,1.17,7.46,0.88
	c-0.22,0.54-0.43,1.09-0.65,1.63c-0.55,0.6-1.26,1.14-0.82,2.12C461.32,389.02,459.33,393.03,456.72,396.72z"/>
<path class="st22" d="M403.6,390.22c-2.2-2.26-4.98-3.77-7.8-4.85c-6.19-2.36-11.29-6.53-17.04-9.6c4.9-1.09,9.36-3.19,13.52-5.95
	c6.73-3.15,11.34,1.08,16.1,4.67c0.71,0.53,1.46,0.92,2.19,1.38c3.92,2.48,4.87,1.4,1.95,6.61
	C410.06,385.65,407.08,388.23,403.6,390.22z"/>
<path class="st23" d="M485.82,435.69c-2.8,4.1-6.02,7.86-9.65,11.25c-3.58-0.22-6.91-1.16-9.86-3.32c-2.36-1.73-4.42-3.83-7.6-4.42
	c-1.87-0.35-4.28-1.24-3.49-4.24c2.91-3.02,5.81-6.04,8.72-9.06c3.24-3.07,3.76-3.04,7.65-0.86c3.41,1.9,6.45,4.39,10.61,5.04
	C484.63,430.45,486.36,432.68,485.82,435.69z"/>
<path class="st24" d="M333.41,321.65c3.08-3.5,5.94-1.77,9.4-0.23c5.06,2.25,9.86,5.02,14.99,7.08c-3.67,3.94-6.85,8.18-8.35,13.46
	c-0.79,0.57-1.65,0.52-2.51,0.25c-5.99-1.9-11.2-5.33-16.54-8.51c-1.42-0.85-1.94-2.24-1.2-3.89
	C330.01,326.79,331.55,324.14,333.41,321.65z"/>
<path class="st25" d="M473.26,413.29c2.54-4.46,4.31-9.69,10.45-10.6c1.77,0.23,3.53-0.04,5.29-0.02c7.3,1.68,11.12,9,8.18,15.81
	c-0.93,2.16-2.08,4.23-3.66,6.01c-1.2,0.41-2.32,0.48-3.56-0.1c-5.37-2.51-10.2-5.97-15.4-8.77
	C473.66,415.13,472.92,414.5,473.26,413.29z"/>
<path class="st26" d="M412.52,382.48c0.82-3.54-1.61-4.19-4.15-5.47c-2.31-1.16-3.88-3.48-6.62-4.56c-2.33-0.92-4.06-3.08-7.02-1.89
	c-0.62,0.25-1.62-0.47-2.45-0.75c3.39-3.06,6.02-6.7,8.14-10.72c2.84-4.35,2.61-3.81,7.87-1.54c3.24,1.39,5.54,4.03,8.82,5.14
	c2.93,1,2.62,4.32,4.25,6.28C419.35,374.09,416.47,378.64,412.52,382.48z"/>
<path class="st14" d="M283.52,324.73c0.14,0.45,0.28,0.9,0.42,1.35c3.7-1.71,6.06,0.42,8.73,2.62c2.33,1.92,5.18,3.33,8.01,4.45
	c1.92,0.76,3.1,1.84,3.87,3.6c-0.31,3.01-0.61,6.02-0.92,9.03c-0.69,2.23,0.25,4.59-0.55,6.81l0.02,0
	c-0.12,0.04-0.31,0.16-0.34,0.12c-4.18-4.55-11.09-4.49-15.24-9.11c-1.26-1.41-3.05-2.44-4.74-2.82c-2.19-0.49-1.63-1.32-1.56-2.98
	C281.13,333.29,282.08,328.97,283.52,324.73z"/>
<path class="st27" d="M365.96,471.62c4.02-0.75,6.4,1.98,8.62,4.49c0.91,1.04,1.33,1.71,2.83,1.45c2.53-0.45,3.88,2.17,5.66,3.15
	c4.07,2.26,8.42,3.87,12.46,6.09c0.72,0.4,0.77,1.22,0.49,1.99c-7.09,1.44-14.27,1.81-21.47,1.65c-5.52-0.12-9.34-3.5-10.75-9.01
	c0.17-1.74,0.19-3.48-0.01-5.22C363.86,474.38,364.59,472.85,365.96,471.62z"/>
<path class="st28" d="M281.22,337.8c0.57,1.54,2.24,1.38,3.34,1.84c2.37,0.99,4.3,2.52,6.18,4.09c1.77,1.48,3.57,2.68,5.86,3.02
	c3.46,0.52,6.2,1.81,6.5,5.84c-1.57,5.19-5.58,8.36-10.8,8.53c-5.45,0.18-9.58-3.08-11.88-9.35
	C280.08,351.31,280.97,338.93,281.22,337.8z"/>
<path class="st29" d="M250.51,287.95c4.23,2.26,8.63,4.19,12.48,7.18c2.32,1.81,5.93,0.99,8.06,3.49c-1.83,4.21-3.67,8.42-5.5,12.63
	c-1.97,1.39-3.59-0.17-5.24-0.75c-5.18-1.8-9.59-5.05-14.23-7.86c-1.08-0.65-1.42-1.69-0.89-2.91
	C246.33,295.52,248.33,291.7,250.51,287.95z"/>
<path class="st30" d="M413.92,408.55c1.11,2.78,3.67,3.4,6,4.78c4.32,2.56,9.41,3.71,13.2,7.22c0.58,0.53,1.59,0.59,2.4,0.87
	c-3.43,3.48-7.43,6.15-11.75,8.4c0.34-1.12,0.04-2.08-1.09-2.42c-8.33-2.52-15.02-8.26-22.88-11.68
	C404.66,413.63,409.43,411.38,413.92,408.55z"/>
<path class="st31" d="M435.75,450.04c3.69-2.55,7.37-5.1,11.06-7.65c4.99-1.38,8.79,1.53,12.56,3.86c2.69,1.66,4.8,4.21,7.92,5.32
	c1.09,0.39,1.79,1.32,1.39,2.66c-3.17,3.2-6.58,6.11-10.41,8.5c-1.76,0.18-3.37-0.16-4.9-1.13c-4.91-3.13-10.15-5.66-15.33-8.3
	C436.7,452.62,435.24,452.03,435.75,450.04z"/>
<path class="st22" d="M473.26,413.29c7.12,3.07,13.5,7.49,20.27,11.2c-2.09,4.06-4.75,7.73-7.71,11.2c-1.7-2.31-3.48-3.91-6.72-4.5
	c-3.09-0.57-5.93-2.91-8.67-4.77c-2.18-1.48-4.18-2.01-6.48-0.52C467.05,421.69,470.16,417.49,473.26,413.29z"/>
<path class="st10" d="M258.04,362.99c0.19,0,0.37,0,0.56-0.01c0.33,19.49,0.32,38.99,0.01,58.48c0,0-0.29,0-0.29,0l-0.29,0
	c-0.99-0.59-1.17-1.59-1.1-2.58c0.43-5.48-0.92-10.79-1.46-16.17c-0.11-0.8-0.34-1.59-0.18-2.4c0.07-0.56,0.31-1.14-0.17-1.64
	c-6.17-2.31-11.91-5.44-17.53-8.79c-1.05-0.62-2.2-1.24-2.38-2.68c-0.1-2.97-0.2-5.94,0.06-8.9c2.75-3.67,3.87-4,7.63-2.05
	c5,2.59,10.52,4.28,14.59,8.47c0.06,0.23,0.1,0.48,0.11,0.72c0.02,0.38,0.06,0.47,0.01,0.35c-0.2-0.46,0.17,0.09,0-0.37
	c-1.26-3.35-0.62-6.84-0.72-10.27c-0.09-2.96-0.05-5.94,0-8.9C256.94,365.07,256.59,363.7,258.04,362.99z"/>
<path class="st32" d="M395.38,330.68c2.06-1.75,3.46,0.29,4.95,1.02c3.75,1.87,7.3,4.14,11.06,5.99c4.24,2.08,8.33,4.65,13.25,4.94
	c0,0-0.06-0.03-0.06-0.03c0.54,3.02,0.99,6.04,0.43,9.1c-1.35,5.23-3.09,5.77-7.81,3.05c-4.69-2.7-9.44-5.27-13.89-8.36
	c-0.24-0.5-0.47-1.01-0.65-1.54c-0.23-0.47-0.28-1.04-0.73-1.39C400.6,338.77,398.47,334.48,395.38,330.68z"/>
<path class="st33" d="M245.19,299.73c5.78,4.37,12.24,7.53,18.82,10.46c0.56,0.25,1.02,0.7,1.53,1.05c-1.3,4.49-2.6,8.97-3.9,13.46
	c-0.32,0.21-0.77,0.4-1.04,0.21c-3.21-2.22-7-3.55-10.07-5.72c-2.56-1.81-5.03-2.87-7.91-3.36c-1.65-0.28-2.63-0.73-1.93-2.6
	C241.57,308.53,243.18,304.07,245.19,299.73z"/>
<path class="st16" d="M329.19,329.81c1.19,2.63,3.83,3.27,6.07,4.54c4.19,2.38,8.1,5.28,12.99,6.23c0.47,0.09,0.79,0.9,1.19,1.37
	c-1.05,3.95,0.2,8.31-2.13,12.03c-1.12,1.67-2.48,1.87-4.12,0.73c-4.86-3.4-9.84-6.58-15.35-8.87c-2.4-1-2.21-3.01-1.62-5.05
	C326.25,336.88,327.43,333.27,329.19,329.81z"/>
<path class="st9" d="M240.69,313.24c1.84,1.14,4.15,0.29,6.02,1.57c4.92,3.37,11.5,4.25,14.93,9.89c-0.69,3.76-1.38,7.52-2.07,11.28
	c-5.51-4.69-11.93-7.66-18.74-9.87c-1.94-0.63-2.15-2.18-2.38-3.8C238.75,319.18,239.44,316.14,240.69,313.24z"/>
<path class="st5" d="M236.24,337.8c-0.47,2.9,0.74,3.86,3.52,3.09c0.99-0.28,2.06-0.36,2.76,0.56c2.36,3.08,6.17,4.3,8.85,6.97
	c0.71,0.71,1.59,1.33,2.64,1.26c2.64-0.18,3.11,1.51,3.26,3.56c0.79,2.76,0.19,5.59,0.36,8.37c-0.61,2.25-2.65,2.76-4.09,1.92
	c-5.19-3.05-11.16-4.52-16.02-8.2c-1.17-0.88-1.76-2.04-2.22-3.33c-0.15-1.02-0.4-2.01-0.51-3.04c0.14-1.85-0.49-3.78,0.64-5.51
	C235.78,341.58,235.4,339.6,236.24,337.8z"/>
<path class="st34" d="M403.49,344.98c5.45,3.09,10.89,6.23,16.38,9.26c2.1,1.16,3.55,0.05,4.62-1.76c0.73,0.59,0.06,1.63,0.71,2.24
	c-0.03,5.09-1.88,9.69-3.84,14.26c-3.11-2.07-5.34-5.21-8.9-6.84c-1.16-0.53-1.8-2.14-3.61-1.84c-0.6,0.1-1.65-0.36-1.93-0.86
	c-2.04-3.76-4.23-2.43-6.5-0.33c1.69-5.09,2.17-10.31,1.5-15.63c0.28,0.28,0.57,0.55,0.85,0.83c0.77,2.81,0.06,5.69,0.37,7.98
	C403.38,350.21,402.66,347.56,403.49,344.98z"/>
<path class="st35" d="M435.75,450.04c3.86,2.19,8.25,3.52,11.85,5.89c3.52,2.32,7.85,3.42,10.67,6.8
	c-3.23,2.82-6.78,5.16-10.55,7.17c-0.07-1.38-0.08-3.27-1.84-3.08c-2.86,0.31-4.24-1.1-5.74-3.13c-0.82-1.12-2.31-1.94-3.67-2.43
	c-3.77-1.34-7.07-3.35-9.93-6.13C429.62,453.44,432.69,451.74,435.75,450.04z"/>
<path class="st30" d="M468.69,454.24c-7.58-3.41-13.63-9.65-21.87-11.84c2.81-2.48,5.61-4.96,8.42-7.44
	c0.69,1.12,1.79,2.08,2.95,2.14c4.44,0.25,7.02,3.36,10.14,5.84c1.52,1.21,3.95,1.96,5.88,1.8c2.33-0.2,1.28,1.56,1.97,2.2
	C473.98,449.67,471.48,452.11,468.69,454.24z"/>
<path class="st36" d="M326.22,340.8c0.08,1.2-0.2,2.58,1.38,3.1c6.44,2.11,12.08,5.62,17.27,9.9c0.78,0.64,1.6,0.52,2.44,0.2
	c-1.31,4.58-8.16,7.25-12.13,6.45c-5.36-1.09-8.9-4.74-9.62-10.23c0.49-1.25,0.54-2.49-0.03-3.72
	C325.34,344.54,325.33,342.62,326.22,340.8z"/>
<path class="st37" d="M234.8,437.96c0-31.48,0-62.96,0-94.44c0.21-0.03,0.42-0.06,0.63-0.08c0.07,2.03,0.13,4.05,0.2,6.08
	c1.79,7.93,0.73,15.99,1.01,23.99c-1.89,11.22,0.89,22.44,0,33.65c0.23,9.76-0.95,19.48-1,29.24c-0.08,0.53-0.15,1.06-0.23,1.6
	C235.21,438,235.01,437.98,234.8,437.96z"/>
<path class="st7" d="M303.68,527.19c-0.23,1.01-0.3,2.06-0.53,3.07c-0.09-0.12-0.17-0.23-0.25-0.35
	c-1.64-11.61-0.83-23.29-1.02-34.94c0-11.66,0-23.32,0-34.98c0.24-5.61-0.51-11.24,0.43-16.83c0.26-0.43,0.64-0.65,1.14-0.68
	c0.04,26.39,0.08,52.79,0.14,79.18"/>
<path class="st38" d="M349.01,443.34c-0.08,7.61-0.23,15.22-0.24,22.82c-0.02,12.61,0.04,25.21,0.07,37.82
	c-0.26,0.76-0.53,1.51-0.79,2.27c-0.02-3.26-0.03-6.53-0.05-9.79c-1.61-1.01-1.63-2.68-1.72-4.29c-0.16-2.6,0-5.22-0.49-7.79
	c1.48-9.03,0.87-18.14,1.2-27.21c0.14-3.81-1.74-7.31-1.06-11.1C346.61,444.77,346.71,442.8,349.01,443.34z"/>
<path class="st39" d="M280.58,376.51c1.4,4.43,0.34,8.99,0.69,13.47c2.65,4.73,1.65,9.89,1.79,14.92
	c-0.13,5.43-0.11,10.85,0.42,16.26c-0.63,2.27,0.07,4.85-1.6,6.88c-0.4,0.34-0.85,0.4-1.33,0.18
	C280.29,410.98,280.23,393.74,280.58,376.51z"/>
<path class="st40" d="M325.63,467.96c-0.02-15.98-0.03-31.9-0.05-47.88c0.32,0,0.4,0,0.65,0c0.01,2.21,0.02,4.43,0.03,6.64
	c2.83,5.25,1.73,10.81,1.25,16.32c0.03,3.31,1.12,6.58,0.35,9.91c0.23,3.65,0.31,7.31,0.14,10.96c-0.06,1.32,0,2.71-1.05,3.78
	C326.57,468.05,326.13,468.14,325.63,467.96z"/>
<path class="st41" d="M280.55,428.22c0.22,0,0.45,0,0.67,0c0.95,0.53,1.13,1.44,1.23,2.4c0.9,4.19,0.66,8.42,0.55,12.65
	c-0.28,4.69,0.35,9.37,0.03,14.06c-0.45,2.98,0.86,6.18-1.16,8.96c-0.4,0.34-0.84,0.4-1.32,0.17
	C280.55,453.71,280.55,440.96,280.55,428.22z"/>
<path class="st42" d="M280.55,466.46c0.22,0,0.45,0,0.67,0c0.41,0.26,0.71,0.62,0.91,1.06c1.61,6.55,0.63,13.21,0.89,19.81
	c-0.28,3.99,1.02,8.12-1.15,11.93c-0.4,0.35-0.85,0.41-1.33,0.19C280.55,488.46,280.55,477.46,280.55,466.46z"/>
<path class="st43" d="M280.55,499.45c0.23,0,0.45,0,0.68,0c0.67,0.41,0.97,1.04,1.08,1.79c0.22,3.21,1.02,6.37,0.72,9.63
	c-0.15,1.64-0.32,3.22-1.75,4.32c-0.37,4.24,0.78,8.57-0.73,12.74C280.54,518.44,280.55,508.95,280.55,499.45z"/>
<path class="st44" d="M425.2,354.72c-0.24-0.75-0.47-1.49-0.71-2.24c0.03-3.29,0.06-6.58,0.09-9.88
	C426.59,346.55,425.62,350.65,425.2,354.72z"/>
<path class="st45" d="M489.01,402.67c-1.76,1.09-3.52,1.1-5.29,0.02C485.48,401.94,487.24,401.94,489.01,402.67z"/>
<path class="st46" d="M363.79,476.22c0.97,1.74,0.97,3.48,0.01,5.22C363.17,479.7,363.18,477.96,363.79,476.22z"/>
<path class="st28" d="M303.08,352.58c0.06-2.28-0.5-4.61,0.55-6.81C303.8,348.07,304.16,350.39,303.08,352.58z"/>
<path class="st3" d="M378.02,398.82c1.44-1.37,3.11-0.6,4.71-0.53C381.23,399.05,379.63,398.95,378.02,398.82z"/>
<path class="st47" d="M325.53,346.49c0.87,1.23,0.86,2.47,0.03,3.72C325.55,348.97,325.54,347.73,325.53,346.49z"/>
<path class="st18" d="M462.73,384.72c-0.52-1.02-0.87-1.96,0.82-2.12C463.12,383.66,463.07,383.82,462.73,384.72z"/>
<path class="st48" d="M326.26,443.21c0-5.5,0-10.99,0-16.49c2.91,3.12,7.37,3.29,10.77,5.55c1.1,0.73,2.28,1.3,3.29,2.22
	c1.59,1.45,2.98,2.9,5.62,3.08c2.17,0.15,3.43,3.19,5.9,3.89c1.03,0.29,1.93,1.44,2.88,2.01c-1.91,0.07-3.81-0.21-5.72-0.14
	c-1.02,0.74-0.95,1.86-1.04,2.93c-0.74,2.05-0.14,4.19-0.36,6.27c-1.87,1.31-5.95,0.9-7.71-1.27c-2.12-2.62-5.04-3.64-7.95-4.46
	C329.57,446.14,327.6,445.31,326.26,443.21z"/>
<path class="st49" d="M257.27,433.46c-0.32-3.75-2.79-5.33-5.94-6.92c-3.73-1.88-7.23-4.16-11.19-5.68
	c-2.08-0.8-2.96-0.18-3.86,1.36c-0.82-4.31-0.17-8.66-0.38-12.98c-0.01-1.36,0.37-2.68,0.41-4.06c0.08-3.14,1.25-4.12,4.24-2.94
	c5.4,2.14,10.55,4.87,15.24,8.35c1.8,1.34,1.59,3.51,1.86,5.47C257.41,421.86,258.13,427.68,257.27,433.46z"/>
<path class="st50" d="M257.27,433.46c0-6.25,0-12.5,0-18.74c-0.88-3.16-2.17-6.24-1.72-9.66c0.19-1.48,0.23-2.97,1.73-3.83
	c1.54,4.08,0.45,8.31,0.71,12.46c0.16,2.58,0.04,5.18,0.05,7.78c0,4.51,0,9.01,0,13.77c-0.41-0.4-0.65-0.52-0.69-0.68
	C257.27,434.2,257.29,433.83,257.27,433.46z"/>
<path class="st51" d="M236.28,407.97c0,4.75,0,9.5,0,14.24c-0.36,4.72,0.71,9.51-0.63,14.19c0-9.73,0-19.46,0-29.19
	c0.26-0.22,0.53-0.25,0.81-0.05C236.6,407.49,236.53,407.75,236.28,407.97z"/>
<path class="st7" d="M347.98,484.41c0.01,4.01,0.01,8.03,0.02,12.04c-1.89,1.64-3.06-0.56-4.16-1.15
	c-5.84-3.16-12.37-5.02-17.58-9.34c-0.83-4.87-0.16-9.77-0.37-14.65c1.42-4.89,2.88-5.15,7.4-3.31c4.06,1.66,6.75,5.31,11.05,6.54
	c1.92,0.55,2.17,3.13,3.22,4.77C347.89,481,347.2,482.76,347.98,484.41z"/>
<path class="st52" d="M326.26,470.21c0,5.25,0,10.5,0,15.74c-0.38,5.97,0.74,11.99-0.62,17.93c0-11.98,0-23.95-0.01-35.93
	c0.2,0,0.39,0,0.59,0C326.95,468.69,326.79,469.45,326.26,470.21z"/>
<path class="st53" d="M281.27,404.97c0-5,0-9.99,0-14.99c2.99,2.77,7.1,3.55,10.33,6.02c3.68,2.81,7.89,4.93,11.86,7.36
	c0,13.04,0,26.07,0,39.11c-0.14,0-0.29-0.01-0.43-0.01c-0.98-0.6-1.16-1.59-1.1-2.59c0.35-6.19-0.56-12.29-1.36-18.39
	c0.34-6.3-5.24-7.31-9.05-9.44C287.84,409.98,283.73,408.74,281.27,404.97z"/>
<path class="st54" d="M257.27,362.23c0-3,0-6,0-8.99c1.46,3.16,0.4,6.51,0.77,9.75c0,9.19,0,18.38,0,27.57
	c-0.26,0.01-0.51,0.02-0.77,0.04c0-1.96,0-3.92,0-5.87c-2.91-2.82-1.33-6.54-1.98-9.82c0.86-2.41,0.03-4.87,0.19-7.3
	C255.62,365.65,255.46,363.62,257.27,362.23z"/>
<path class="st55" d="M281.27,515.2c0-4.75,0-9.49,0-14.24c0.57-0.6,1.39-0.95,2.02-0.54c2.21,1.45,5.18,1.45,7.08,2.67
	c3.67,2.36,7.74,3.77,11.41,5.99c0.71,0.43,0.87,1.17,0.85,1.96c-0.21,4.39,0.44,8.79-0.37,13.16c-4.78-1.66-9.52-3.41-13.89-6
	C286.15,516.87,283.98,515.39,281.27,515.2z"/>
<path class="st56" d="M302.26,524.2c0-4.75,0-9.5,0-14.25c-2.23-1.83-1.68-4.41-1.79-6.79c-0.08-1.82-0.05-3.65,0.06-5.48
	c0.31-0.87,0.58-1.77,1.17-2.51c0.36-0.36,0.78-0.44,1.24-0.23c-0.01,11.66-0.03,23.31-0.04,34.96
	C301.79,528.1,302.45,526.1,302.26,524.2z"/>
<path class="st6" d="M236.28,407.97c-0.01-0.25-0.03-0.5-0.04-0.76c-0.54-6.5-0.6-13,0.05-19.49c5.56,2.71,11.13,5.4,16.66,8.16
	c1.4,0.7,2.83,0.86,4.33,0.84c0.57,1.25,0.57,2.49,0,3.74c0,0.25,0,0.51,0,0.76c0,4.5,0,8.99,0,13.49
	c-1.19-1.18-1.19-4.23-4.33-2.51c-0.38,0.21-0.93-2.87-3.14-3.39c-2.2-0.52-4.22-1.96-6.29-3.02
	C237.93,402.93,238.02,402.75,236.28,407.97z"/>
<path class="st57" d="M257.27,374.97c0,3.25,0,6.5,0,9.75c-5.46-1.08-9.93-4.39-14.77-6.8c-2.35-1.17-4.15-1.27-6.22,0.06
	c-0.76-1.45-0.21-3-0.38-4.5c0.01-2.55-0.02-5.11,0.02-7.66c1.19-2.87,3.41-1.75,4.97-0.87c3.94,2.2,8,3.9,12.4,4.92
	C255.86,370.46,256.05,373.17,257.27,374.97z"/>
<path class="st58" d="M236.23,373.48c0.01,1.5,0.03,3,0.04,4.5c0,3.25,0,6.5,0.01,9.75c-0.02,6.5-0.03,13-0.05,19.49
	c-0.2,0-0.39,0-0.59,0c0-11.24,0-22.49,0-33.73C235.84,372.96,236.03,372.95,236.23,373.48z"/>
<path class="st50" d="M257.27,400.47c0-1.25,0-2.49,0-3.74C258.63,397.97,257.91,399.22,257.27,400.47z"/>
<path class="st59" d="M403.49,344.98c0,2.2,0,4.39,0,6.59c-0.24,0.01-0.48,0.02-0.71,0.03c0-2.43,0-4.87,0-7.3
	C403.02,344.53,403.25,344.75,403.49,344.98z"/>
<path class="st12" d="M257.27,374.97c-6.41-4.5-14.11-6.25-20.99-9.75c-0.61-4.5-0.61-9,0-13.5c2.04,2.61,4.43,4.59,7.93,4.88
	c1.67,0.14,2.93,1.24,4.24,2.19c2.63,1.91,5.31,3.76,8.82,3.42C257.27,366.48,257.27,370.73,257.27,374.97z"/>
<path class="st60" d="M236.28,351.73c0,4.5,0,9,0,13.5c-0.01,2.75-0.03,5.5-0.05,8.25c-0.2,0-0.39,0-0.59,0
	c0-7.99-0.01-15.97-0.01-23.96C235.85,350.26,236.06,351,236.28,351.73z"/>
<path class="st61" d="M302.26,419.97c1.48,3.58,0.54,7.33,0.7,10.99c0.17,3.83,0.06,7.67,0.07,11.5c-0.03,5.75-0.06,11.5-0.09,17.25
	c-0.47,0.21-0.9,0.15-1.3-0.19c-1.74-2.05-0.81-4.48-0.96-6.75c-0.31-4.2-0.32-8.4-0.17-12.6c0.54-3.51-0.53-7.08,0.39-10.58
	c0.24-1.97-0.59-3.87-0.35-5.84C300.74,422.3,300.64,420.76,302.26,419.97z"/>
<path class="st62" d="M302.27,459.71c0.23,0,0.45,0,0.68,0.01c0,11.74,0,23.49,0.01,35.23c-0.23,0-0.46,0-0.68,0
	c-1.92-0.99-1.63-2.86-1.75-4.53c-0.32-4.16,0.22-8.32,0.06-12.49c-0.24-3.59-0.14-7.19-0.07-10.79
	C301.01,464.65,299.54,461.68,302.27,459.71z"/>
<path class="st61" d="M347.98,484.41c-1.07-1.62-0.61-3.46-0.72-5.21c-2.77-5.01-1.64-10.42-1.61-15.72
	c0.23-3.55-1.39-7.39,1.61-10.52c0.2-2.24-0.51-4.57,0.72-6.7C347.97,458.98,347.98,471.7,347.98,484.41z"/>
<path class="st48" d="M302.26,419.97c0,3.25,0,6.5,0,9.75c-1.33,1.39-2.87,1.18-3.93-0.04c-3.55-4.1-9.46-4.19-13.17-8
	c-1.11-1.14-2.63,0.59-3.9-0.21c0-5.5,0-11,0-16.49c6.76,3.05,13.35,6.43,19.72,10.25C302.95,416.39,302.01,418.34,302.26,419.97z"
	/>
<path class="st63" d="M281.27,421.46c0.64-2.82,2.34-4.03,4.46-1.73c2.33,2.52,5.37,3.72,8.26,4.64c3.4,1.09,4.74,4.84,8.27,5.34
	c0,3.5,0,7,0,10.5c-0.78,0.77-1.72,1.09-2.73,0.63c-6.38-2.93-13.56-4.49-18.26-10.37c-0.01-0.75-0.03-1.5-0.04-2.25
	C281.24,425.96,281.25,423.71,281.27,421.46z"/>
<path class="st49" d="M347.25,463.46c0,5.25,0,10.5,0,15.74c-2.65-3.53-7.76-3.29-10.46-7.14c-1.24-1.78-4.27-2.25-6.38-3.57
	c-1.75-1.09-2.78,1.06-4.16,1.72c-0.01-0.75-0.03-1.5-0.04-2.26c0.01-5,0.03-10,0.04-15c0.66-2.05,1.93-2.53,3.6-1.19
	c4.61,3.7,9.82,6.45,14.82,9.53C345.65,461.9,346.46,462.66,347.25,463.46z"/>
<path class="st64" d="M347.25,463.46c-1.66,0.07-3.29-0.24-4.59-1.21c-4.47-3.35-10.38-4.56-13.9-9.33
	c-0.78-1.06-1.68-0.78-2.51,0.04c0-3.25,0-6.5,0-9.75c0.41-0.26,1.11-0.83,1.2-0.75c3.27,3.02,8.46,2.3,11.37,5.17
	c2.55,2.52,5.8,3.3,8.42,5.33C347.25,456.46,347.25,459.96,347.25,463.46z"/>
<path class="st7" d="M302.27,459.71c0,2.5,0,5,0,7.5c-3.6,1.38-6.76,1.83-10.02-1.45c-2.34-2.36-5.8-3.56-8.53-5.67
	c-1.02-0.78-1.78-1.61-2.44-2.63c0-4.75,0-9.5,0-14.24c1.02-1.13,2.18-0.88,3.43-0.41c6.41,2.43,12.75,4.96,17.57,10.15
	C302.26,455.21,302.27,457.46,302.27,459.71z"/>
<path class="st49" d="M302.26,452.96c-2.47,0.5-4.34,0.25-5.75-2.43c-1.19-2.28-4.25-2.32-6.41-3.49c-2.81-1.53-5.88-2.57-8.84-3.82
	c0-4.25,0-8.5-0.01-12.75c2.31-0.07,3.78,1.65,5.64,2.56c5.07,2.49,10.23,4.8,15.36,7.18C302.26,444.46,302.26,448.71,302.26,452.96
	z"/>
<path class="st65" d="M281.27,457.46c5.32,1.64,9.75,4.77,13.76,8.49c0.82,0.76,1.2,0.31,1.86,0.2c1.92-0.34,3.63,0.45,5.37,1.07
	c0,3.5,0,7,0,10.5c-2.25,3.08-3.06,3.31-5.94,1.3c-2.56-1.78-5.43-2.97-8.2-4.25c-3.5-1.61-5.96-3.75-6.85-7.55
	c-0.01-0.25-0.03-0.5-0.04-0.76C281.24,463.46,281.26,460.46,281.27,457.46z"/>
<path class="st66" d="M281.27,467.22c3.34,4.3,8.22,6.23,12.93,8.43c0.89,0.42,2.05,0.66,2.58,1.37c1.67,2.21,3.46,2.02,5.48,0.69
	c0,5.75,0,11.49,0.01,17.24c0,0.75,0,1.5,0,2.26c-4.07,0.94-7.39-1.41-10.27-3.34c-3.49-2.33-7.65-3.48-10.72-6.42
	C281.27,480.7,281.27,473.96,281.27,467.22z"/>
<path class="st67" d="M281.27,487.45c0.43-0.24,1.13-0.79,1.26-0.68c2.67,2.3,6.96,1.38,9.12,4.64c1.36,2.05,3.84,2.13,5.8,3.08
	c1.68,0.81,3.34,1.57,4.81,2.71c0,4.25,0,8.5,0,12.74c-1.82,0.21-3.75,0.9-4.98-1.27c-0.16-0.28-0.79-0.63-0.9-0.55
	c-3.84,2.93-3.84-1.16-5.2-2.79c-0.3-0.36-0.89-0.89-1.19-0.8c-3.85,1.05-6.02-1.88-8.71-3.59c-0.02-0.5-0.03-1-0.05-1.5
	C281.24,495.45,281.26,491.45,281.27,487.45z"/>
<rect x="203.8" y="333.38" class="st0" width="31.83" height="116.67"/>
</svg>
