<?xml version="1.0" standalone="no"?>
<!DOCTYPE svg PUBLIC "-//W3C//DTD SVG 20010904//EN"
 "http://www.w3.org/TR/2001/REC-SVG-20010904/DTD/svg10.dtd">
<svg version="1.0" xmlns="http://www.w3.org/2000/svg"
 width="200.000000pt" height="200.000000pt" viewBox="0 0 200.000000 200.000000"
 preserveAspectRatio="xMidYMid meet">
<metadata>
Created by potrace 1.11, written by Peter Selinger 2001-2013
</metadata>
<g transform="translate(0.000000,200.000000) scale(0.100000,-0.100000)"
fill="#000000" stroke="none">
<path d="M118 1393 c-28 -31 -22 -61 15 -83 l32 -19 0 -176 0 -175 -33 -20
c-37 -23 -43 -57 -12 -85 16 -15 32 -17 87 -13 139 10 239 95 299 255 45 120
90 181 157 211 15 6 29 12 30 12 5 0 1 -360 -3 -361 -3 -1 -15 1 -27 5 -22 7
-23 11 -23 154 l-1 147 -34 -37 c-34 -36 -35 -41 -35 -115 -1 -77 -1 -78 -17
-49 l-16 30 -29 -60 -30 -59 54 -50 c57 -53 135 -89 198 -90 136 -4 265 101
321 261 29 81 46 114 83 152 34 37 83 66 89 54 3 -6 2 -306 -2 -340 -1 -9 -6
-10 -19 -3 -17 9 -19 24 -18 150 1 158 -5 171 -53 115 -28 -31 -31 -41 -31
-101 0 -62 -1 -65 -16 -47 -11 13 -17 15 -20 7 -3 -7 -17 -34 -30 -60 l-25
-48 54 -50 c82 -77 177 -104 275 -79 120 31 202 126 266 305 26 73 110 159
156 159 6 0 10 -61 10 -180 0 -185 -1 -191 -39 -170 -17 8 -19 24 -17 150 0
77 -2 140 -6 140 -11 0 -49 -43 -58 -65 -4 -10 -6 -45 -4 -77 2 -58 -7 -73
-25 -41 -5 10 -11 16 -13 13 -2 -3 -15 -28 -30 -57 l-27 -52 58 -54 c61 -56
107 -76 191 -81 56 -4 86 7 95 33 9 30 -1 54 -32 72 l-28 15 0 180 c1 173 2
179 22 182 26 4 47 43 38 71 -9 29 -39 39 -103 35 -136 -8 -261 -122 -307
-279 -15 -55 -66 -132 -105 -163 -29 -23 -69 -37 -71 -25 -6 37 -2 353 4 353
5 0 17 -5 28 -10 17 -10 19 -23 19 -157 l0 -147 35 39 c32 36 34 45 37 115 3
72 4 74 17 47 l14 -27 28 57 c16 32 29 59 29 61 1 13 -95 93 -135 112 -72 36
-180 35 -250 -2 -88 -45 -148 -123 -196 -255 -28 -75 -70 -136 -113 -162 -18
-12 -37 -21 -42 -21 -5 0 -9 78 -9 173 0 172 1 174 33 169 5 -1 8 -62 8 -134
-1 -73 2 -141 7 -151 8 -18 9 -18 29 0 34 31 48 69 48 135 0 59 1 61 16 40 15
-22 16 -22 44 34 26 53 27 59 13 81 -23 34 -101 89 -156 107 -126 42 -259 -11
-346 -138 -15 -22 -40 -75 -56 -116 -27 -72 -51 -116 -85 -151 -17 -18 -81
-59 -92 -59 -9 0 -11 354 -2 363 3 3 16 1 29 -5 22 -10 22 -14 21 -154 0 -79
2 -144 6 -144 3 0 19 17 35 38 25 33 28 45 27 110 l0 73 21 -26 20 -27 14 39
c7 21 20 45 27 54 12 13 9 21 -20 55 -52 61 -126 96 -210 102 -61 4 -73 2 -88
-15z"/>
<path d="M1060 791 c0 -29 -1 -29 -52 -27 -29 2 -63 -2 -75 -7 -21 -9 -23 -17
-23 -77 0 -38 5 -71 12 -78 7 -7 43 -12 90 -12 l78 0 0 115 c0 96 -3 115 -15
115 -10 0 -15 -10 -15 -29z m5 -113 c0 -32 -2 -59 -5 -59 -27 -6 -107 -4 -116
2 -9 7 -11 45 -5 107 1 9 18 12 64 10 l62 -3 0 -57z"/>
<path d="M1120 805 c0 -9 6 -12 15 -9 8 4 15 10 15 15 0 5 -7 9 -15 9 -8 0
-15 -7 -15 -15z"/>
<path d="M1387 813 c-7 -14 -1 -198 6 -210 10 -15 97 -18 97 -3 0 10 -7 12
-50 14 -24 1 -25 5 -28 64 l-3 62 41 0 c22 0 40 5 40 10 0 11 -3 12 -45 14
-25 1 -31 6 -33 29 -3 25 -16 36 -25 20z"/>
<path d="M1660 717 c0 -67 4 -107 12 -115 17 -17 91 -16 85 1 -2 7 -18 11 -35
10 -35 -2 -34 -3 -36 74 l-1 53 38 0 c27 0 37 4 34 13 -2 6 -17 12 -33 11 -32
-1 -44 10 -39 38 2 11 -2 18 -11 18 -11 0 -14 -20 -14 -103z"/>
<path d="M310 698 c0 -87 3 -108 14 -108 9 0 14 10 14 28 -1 53 -3 52 85 52
51 0 88 5 95 12 17 17 15 103 -2 117 -9 7 -49 11 -110 10 l-96 -3 0 -108z
m188 78 c11 -7 14 -75 4 -77 -31 -6 -149 -4 -158 3 -6 4 -10 18 -8 30 1 13 3
28 3 35 1 6 8 13 18 15 26 5 130 1 141 -6z"/>
<path d="M1599 808 c-1 -2 -3 -51 -3 -110 -2 -83 1 -108 11 -108 10 0 13 26
13 110 0 67 -4 110 -10 110 -5 0 -11 -1 -11 -2z"/>
<path d="M565 757 c-22 -12 -22 -167 0 -167 11 0 14 13 13 58 -1 98 -5 92 58
92 40 0 54 4 52 12 -5 14 -100 18 -123 5z"/>
<path d="M723 755 c-10 -8 -13 -29 -11 -85 l3 -75 88 -3 c55 -2 87 1 87 8 0
12 -4 12 -90 14 -62 1 -65 2 -65 26 0 24 3 25 65 26 36 1 71 2 78 3 18 2 15
66 -4 82 -20 16 -130 19 -151 4z m137 -40 c0 -24 -2 -25 -65 -25 -56 0 -65 2
-65 18 0 28 8 32 72 32 55 0 58 -1 58 -25z"/>
<path d="M1122 679 c0 -63 3 -89 12 -89 18 0 19 167 1 174 -10 3 -13 -15 -13
-85z"/>
<path d="M1195 757 c-19 -10 -21 -137 -3 -155 17 -17 168 -16 168 1 0 10 -19
13 -75 12 -46 -1 -75 2 -78 9 -2 6 -3 34 -3 61 l1 50 78 3 c55 2 77 6 74 15
-4 14 -138 18 -162 4z"/>
</g>
</svg>
